<svg width="23" height="22" viewBox="0 0 23 22" fill="none" xmlns="http://www.w3.org/2000/svg">
<path fill-rule="evenodd" clip-rule="evenodd" d="M6.08329 0.166748C6.6816 0.166748 7.16663 0.651773 7.16663 1.25008V2.33341H15.8333V1.25008C15.8333 0.651773 16.3183 0.166748 16.9166 0.166748C17.5149 0.166748 18 0.651773 18 1.25008V2.33341H19.0833C20.8782 2.33341 22.3333 3.78849 22.3333 5.58341V18.5834C22.3333 20.3783 20.8782 21.8334 19.0833 21.8334H3.91663C2.1217 21.8334 0.666626 20.3783 0.666626 18.5834V5.58342C0.666626 3.78849 2.1217 2.33341 3.91663 2.33341H4.99996V1.25008C4.99996 0.651773 5.48498 0.166748 6.08329 0.166748ZM15.8333 4.50008V5.58341C15.8333 6.18172 16.3183 6.66675 16.9166 6.66675C17.5149 6.66675 18 6.18172 18 5.58341V4.50008H19.0833C19.6816 4.50008 20.1666 4.98511 20.1666 5.58341V8.83342H2.83329V5.58342C2.83329 4.98511 3.31832 4.50008 3.91663 4.50008H4.99996V5.58341C4.99996 6.18172 5.48498 6.66675 6.08329 6.66675C6.6816 6.66675 7.16663 6.18172 7.16663 5.58341V4.50008H15.8333ZM2.83329 11.0001V18.5834C2.83329 19.1817 3.31832 19.6667 3.91663 19.6667H19.0833C19.6816 19.6667 20.1666 19.1817 20.1666 18.5834V11.0001H2.83329Z" fill="#35383F"/>
</svg>
