<svg xmlns="http://www.w3.org/2000/svg" enable-background="new 0 0 64 64" viewBox="0 0 64 64" id="gift-box"><path fill="#231f20" d="M56,17h-9.2c1.1-0.6,2-1.3,2.6-2.2c1-1.7,0.7-3.8-0.8-6.2C46.9,6,45,4.9,42.9,5c-4.8,0.3-9,7.3-10.9,10.7
		C30.2,12.3,25.9,5.3,21.1,5c-2.2-0.2-4.1,1-5.7,3.5c-1.6,2.4-1.9,4.5-0.8,6.2c0.5,0.9,1.4,1.7,2.6,2.2H8c-1.7,0-3,1.3-3,3v6
		c0,1.7,1.3,3,3,3h2.2c-0.1,0.3-0.2,0.6-0.2,1v26c0,1.7,1.4,3,3,3h16.7h4.5H51c1.7,0,3-1.4,3-3V30c0-0.4-0.1-0.7-0.2-1H56
		c1.7,0,3-1.3,3-3v-6C59,18.3,57.7,17,56,17z M36,19.8V27h-1.7h-4.5h-0.9c-0.5,0-0.8-0.4-0.8-0.8v-6.3c0-0.4,0.3-0.8,0.8-0.8
		c0.1,0,0.1,0,0.2,0c0.4,0,0.9,0,1.2,0h3.7c0.4,0,0.8,0,1.2,0c0.1,0,0.1,0,0.2,0C35.7,19,36,19.4,36,19.8z M43,7
		c1.4-0.1,2.7,0.8,3.9,2.6c1.1,1.7,1.4,3.1,0.8,4.1c-1.5,2.5-7.4,3.2-11.9,3.3h-0.6H34c-0.1,0-0.3,0-0.4,0C35.5,13.4,39.4,7.3,43,7z
		 M16.3,13.7c-0.6-1-0.3-2.4,0.8-4.1C18.3,7.9,19.5,7,20.8,7c0.1,0,0.1,0,0.2,0c3.6,0.3,7.5,6.4,9.4,10c-0.1,0-0.3,0-0.4,0h-1.2
		h-0.6C23.8,16.9,17.8,16.3,16.3,13.7z M7,26v-6c0-0.6,0.4-1,1-1h18.1c-0.1,0.3-0.1,0.5-0.1,0.8v6.3c0,0.3,0.1,0.6,0.1,0.8H13H8
		C7.4,27,7,26.6,7,26z M12,56V30c0-0.6,0.4-1,1-1h14.1C27,29.2,27,29.5,27,29.7v26.5c0,0.3,0,0.5,0.1,0.7H13C12.5,57,12,56.5,12,56z
		 M29.7,57c-0.4,0-0.7-0.3-0.7-0.7V29.7c0-0.4,0.3-0.7,0.7-0.7h4.5c0.4,0,0.7,0.3,0.7,0.7v26.5c0,0.4-0.3,0.7-0.7,0.7H29.7z M52,30
		v26c0,0.6-0.5,1-1,1H36.9c0.1-0.2,0.1-0.5,0.1-0.7V29.7c0-0.3,0-0.5-0.1-0.7H51C51.6,29,52,29.4,52,30z M57,26c0,0.6-0.4,1-1,1h-5
		H38v-7.2c0-0.3-0.1-0.6-0.1-0.8H56c0.6,0,1,0.4,1,1V26z"></path></svg>