<svg width="27" height="26" viewBox="0 0 27 26" fill="none" xmlns="http://www.w3.org/2000/svg">
<path fill-rule="evenodd" clip-rule="evenodd" d="M13.5 13.0001C14.6966 13.0001 15.6666 12.03 15.6666 10.8334C15.6666 9.6368 14.6966 8.66675 13.5 8.66675C12.3033 8.66675 11.3333 9.6368 11.3333 10.8334C11.3333 12.03 12.3033 13.0001 13.5 13.0001ZM13.5 15.1667C15.8932 15.1667 17.8333 13.2266 17.8333 10.8334C17.8333 8.44018 15.8932 6.50008 13.5 6.50008C11.1067 6.50008 9.16663 8.44018 9.16663 10.8334C9.16663 13.2266 11.1067 15.1667 13.5 15.1667Z" fill="#35383F"/>
<path fill-rule="evenodd" clip-rule="evenodd" d="M20.6054 21.178C22.8894 19.1918 24.3333 16.2646 24.3333 13.0001C24.3333 7.017 19.483 2.16675 13.5 2.16675C7.51687 2.16675 2.66663 7.017 2.66663 13.0001C2.66663 16.2646 4.11054 19.1918 6.39455 21.178C8.29664 22.832 10.7814 23.8334 13.5 23.8334C16.1176 23.8334 18.5183 22.905 20.391 21.3596C20.4632 21.3 20.5347 21.2394 20.6054 21.178ZM13.7794 21.6623C13.6866 21.6653 13.5934 21.6667 13.5 21.6667C13.4906 21.6667 13.4813 21.6667 13.4719 21.6667C13.3848 21.6664 13.2979 21.6649 13.2114 21.662C11.7573 21.6145 10.3938 21.2087 9.20622 20.5301C10.1978 19.2435 11.7538 18.4167 13.5 18.4167C15.2461 18.4167 16.8022 19.2435 17.7937 20.5301C16.6037 21.2101 15.2369 21.6162 13.7794 21.6623ZM19.5259 19.229C18.1401 17.4181 15.9564 16.2501 13.5 16.2501C11.0435 16.2501 8.85983 17.4181 7.47401 19.229C5.84564 17.6533 4.83329 15.4449 4.83329 13.0001C4.83329 8.21361 8.71349 4.33341 13.5 4.33341C18.2864 4.33341 22.1666 8.21361 22.1666 13.0001C22.1666 15.4449 21.1543 17.6533 19.5259 19.229Z" fill="#35383F"/>
</svg>
