<svg width="31" height="31" viewBox="0 0 31 31" fill="none" xmlns="http://www.w3.org/2000/svg">
<path d="M25.5 8C25.5 10.0711 23.8211 11.75 21.75 11.75C20.8424 11.75 20.0101 11.4276 19.3614 10.891L12.9255 14.7525C12.9744 14.9941 13 15.244 13 15.5C13 15.756 12.9744 16.0059 12.9255 16.2475L19.3614 20.109C20.0101 19.5724 20.8424 19.25 21.75 19.25C23.8211 19.25 25.5 20.9289 25.5 23C25.5 25.0711 23.8211 26.75 21.75 26.75C19.6789 26.75 18 25.0711 18 23C18 22.744 18.0257 22.494 18.0745 22.2524L11.6387 18.3909C10.99 18.9275 10.1577 19.25 9.25 19.25C7.17893 19.25 5.5 17.5711 5.5 15.5C5.5 13.4289 7.17893 11.75 9.25 11.75C10.1577 11.75 10.99 12.0725 11.6387 12.6091L18.0745 8.74761C18.0257 8.50602 18 8.25601 18 8C18 5.92893 19.6789 4.25 21.75 4.25C23.8211 4.25 25.5 5.92893 25.5 8Z" fill="#35383F"/>
</svg>
