<svg width="47" height="47" viewBox="0 0 47 47" fill="none" xmlns="http://www.w3.org/2000/svg">
<path fill-rule="evenodd" clip-rule="evenodd" d="M9.79175 25.4583C10.8733 25.4583 11.7501 24.5816 11.7501 23.5C11.7501 22.4184 10.8733 21.5417 9.79175 21.5417C8.71019 21.5417 7.83341 22.4184 7.83341 23.5C7.83341 24.5816 8.71019 25.4583 9.79175 25.4583ZM9.79175 29.375C13.0364 29.375 15.6667 26.7447 15.6667 23.5C15.6667 20.2553 13.0364 17.625 9.79175 17.625C6.54708 17.625 3.91675 20.2553 3.91675 23.5C3.91675 26.7447 6.54708 29.375 9.79175 29.375Z" fill="#35383F"/>
<path fill-rule="evenodd" clip-rule="evenodd" d="M23.5 25.4583C24.5816 25.4583 25.4583 24.5816 25.4583 23.5C25.4583 22.4184 24.5816 21.5417 23.5 21.5417C22.4184 21.5417 21.5417 22.4184 21.5417 23.5C21.5417 24.5816 22.4184 25.4583 23.5 25.4583ZM23.5 29.375C26.7447 29.375 29.375 26.7447 29.375 23.5C29.375 20.2553 26.7447 17.625 23.5 17.625C20.2553 17.625 17.625 20.2553 17.625 23.5C17.625 26.7447 20.2553 29.375 23.5 29.375Z" fill="#35383F"/>
<path fill-rule="evenodd" clip-rule="evenodd" d="M37.2083 25.4583C38.2898 25.4583 39.1666 24.5816 39.1666 23.5C39.1666 22.4184 38.2898 21.5417 37.2083 21.5417C36.1267 21.5417 35.2499 22.4184 35.2499 23.5C35.2499 24.5816 36.1267 25.4583 37.2083 25.4583ZM37.2083 29.375C40.4529 29.375 43.0833 26.7447 43.0833 23.5C43.0833 20.2553 40.4529 17.625 37.2083 17.625C33.9636 17.625 31.3333 20.2553 31.3333 23.5C31.3333 26.7447 33.9636 29.375 37.2083 29.375Z" fill="#35383F"/>
</svg>
