<svg width="41" height="41" viewBox="0 0 41 41" fill="none" xmlns="http://www.w3.org/2000/svg">
<path fill-rule="evenodd" clip-rule="evenodd" d="M33.834 10.7844V8.83325C33.834 6.07183 31.5954 3.83325 28.834 3.83325H8.83398C6.07256 3.83325 3.83398 6.07183 3.83398 8.83325V32.1666C3.83398 34.928 6.07256 37.1666 8.83398 37.1666H32.1673C34.9287 37.1666 37.1673 34.928 37.1673 32.1666V15.4999C37.1673 13.3229 35.776 11.4708 33.834 10.7844ZM7.16732 8.83325C7.16732 7.91278 7.91351 7.16659 8.83398 7.16659H28.834C29.7545 7.16659 30.5007 7.91278 30.5007 8.83325V10.4999H8.83398C7.91351 10.4999 7.16732 9.75373 7.16732 8.83325ZM7.16732 13.5487C7.68862 13.733 8.24959 13.8333 8.83398 13.8333H32.1673C33.0878 13.8333 33.834 14.5794 33.834 15.4999V18.8333H28.834C26.0726 18.8333 23.834 21.0718 23.834 23.8333C23.834 26.5947 26.0726 28.8333 28.834 28.8333H33.834V32.1666C33.834 33.0871 33.0878 33.8333 32.1673 33.8333H8.83398C7.91351 33.8333 7.16732 33.0871 7.16732 32.1666V13.5487ZM28.834 22.1666H33.834V25.4999H28.834C27.9135 25.4999 27.1673 24.7537 27.1673 23.8333C27.1673 22.9128 27.9135 22.1666 28.834 22.1666Z" fill="#0A364D"/>
</svg>
